{
  "accessors": [
    {
      "bufferView": 2,
      "componentType": 5126,
      "count": 2632,
      "max": [
        1.8245799541473389,
        4.332779884338379,
        2.541840076446533
      ],
      "min": [
        -1.8245799541473389,
        -4.464109897613525,
        0.2593199908733368
      ],
      "type": "VEC3"
    },
    {
      "bufferView": 2,
      "byteOffset": 31584,
      "componentType": 5126,
      "count": 2632,
      "max": [
        1.0,
        0.9991844296455383,
        0.9995635747909546
      ],
      "min": [
        -1.0,
        -0.9941465258598328,
        -0.9970061779022217
      ],
      "type": "VEC3"
    },
    {
      "bufferView": 0,
      "componentType": 5125,
      "count": 11460,
      "type": "SCALAR"
    },
    {
      "bufferView": 2,
      "byteOffset": 63168,
      "componentType": 5126,
      "count": 323,
      "max": [
        1.6507099866867065,
        4.1468000411987305,
        0.45949000120162964
      ],
      "min": [
        -1.6507099866867065,
        -4.317319869995117,
        0.2081499993801117
      ],
      "type": "VEC3"
    },
    {
      "bufferView": 2,
      "byteOffset": 67044,
      "componentType": 5126,
      "count": 323,
      "max": [
        0.3684031367301941,
        0.6215888261795044,
        -0.7832812666893005
      ],
      "min": [
        -0.3684031367301941,
        -0.2436336725950241,
        -0.9999995827674866
      ],
      "type": "VEC3"
    },
    {
      "bufferView": 0,
      "byteOffset": 45840,
      "componentType": 5125,
      "count": 1542,
      "type": "SCALAR"
    },
    {
      "bufferView": 2,
      "byteOffset": 70920,
      "componentType": 5126,
      "count": 496,
      "max": [
        1.8202400207519531,
        4.313739776611328,
        2.3546900749206543
      ],
      "min": [
        -1.8202400207519531,
        -4.237189769744873,
        0.48767000436782837
      ],
      "type": "VEC3"
    },
    {
      "bufferView": 2,
      "byteOffset": 76872,
      "componentType": 5126,
      "count": 496,
      "max": [
        0.9999999403953552,
        0.9851328730583191,
        0.991293728351593
      ],
      "min": [
        -0.9999999403953552,
        -0.9556409120559692,
        -0.1873241513967514
      ],
      "type": "VEC3"
    },
    {
      "bufferView": 0,
      "byteOffset": 52008,
      "componentType": 5125,
      "count": 1344,
      "type": "SCALAR"
    },
    {
      "bufferView": 2,
      "byteOffset": 82824,
      "componentType": 5126,
      "count": 95,
      "max": [
        1.7969800233840942,
        4.23606014251709,
        1.7774399518966675
      ],
      "min": [
        -1.7969800233840942,
        1.4551299810409546,
        1.4959499835968018
      ],
      "type": "VEC3"
    },
    {
      "bufferView": 2,
      "byteOffset": 83964,
      "componentType": 5126,
      "count": 95,
      "max": [
        0.9955860376358032,
        0.9251378774642944,
        1.0
      ],
      "min": [
        -0.9955860376358032,
        -0.005190090276300907,
        -1.0
      ],
      "type": "VEC3"
    },
    {
      "bufferView": 0,
      "byteOffset": 57384,
      "componentType": 5125,
      "count": 306,
      "type": "SCALAR"
    },
    {
      "bufferView": 2,
      "byteOffset": 85104,
      "componentType": 5126,
      "count": 2249,
      "max": [
        1.9514600038528442,
        4.332779884338379,
        2.4377501010894775
      ],
      "min": [
        -1.9514600038528442,
        -4.377089977264404,
        0.35774001479148865
      ],
      "type": "VEC3"
    },
    {
      "bufferView": 2,
      "byteOffset": 112092,
      "componentType": 5126,
      "count": 2249,
      "max": [
        0.9999670386314392,
        0.9987172484397888,
        1.0
      ],
      "min": [
        -0.9999670386314392,
        -0.9999935030937195,
        -1.0
      ],
      "type": "VEC3"
    },
    {
      "bufferView": 0,
      "byteOffset": 58608,
      "componentType": 5125,
      "count": 6888,
      "type": "SCALAR"
    },
    {
      "bufferView": 2,
      "byteOffset": 139080,
      "componentType": 5126,
      "count": 3259,
      "max": [
        1.4573400020599365,
        4.1763200759887695,
        1.7451399564743042
      ],
      "min": [
        -1.4573400020599365,
        -4.1272501945495605,
        0.4972600042819977
      ],
      "type": "VEC3"
    },
    {
      "bufferView": 2,
      "byteOffset": 178188,
      "componentType": 5126,
      "count": 3259,
      "max": [
        0.9999870657920837,
        0.9982141852378845,
        1.0
      ],
      "min": [
        -0.9999870657920837,
        -0.9983929991722107,
        -1.0
      ],
      "type": "VEC3"
    },
    {
      "bufferView": 0,
      "byteOffset": 86160,
      "componentType": 5125,
      "count": 16944,
      "type": "SCALAR"
    },
    {
      "bufferView": 2,
      "byteOffset": 217296,
      "componentType": 5126,
      "count": 332,
      "max": [
        1.6859300136566162,
        3.101599931716919,
        2.4003400802612305
      ],
      "min": [
        -1.6859300136566162,
        -1.6394000053405762,
        1.7484099864959717
      ],
      "type": "VEC3"
    },
    {
      "bufferView": 2,
      "byteOffset": 221280,
      "componentType": 5126,
      "count": 332,
      "max": [
        0.8913968205451965,
        0.28483495116233826,
        0.9783647656440735
      ],
      "min": [
        -0.8913968205451965,
        -0.47076475620269775,
        0.4529385268688202
      ],
      "type": "VEC3"
    },
    {
      "bufferView": 0,
      "byteOffset": 153936,
      "componentType": 5125,
      "count": 1320,
      "type": "SCALAR"
    },
    {
      "bufferView": 2,
      "byteOffset": 225264,
      "componentType": 5126,
      "count": 1924,
      "max": [
        1.823259949684143,
        4.172719955444336,
        2.26023006439209
      ],
      "min": [
        -1.823259949684143,
        -3.619770050048828,
        0.22126999497413635
      ],
      "type": "VEC3"
    },
    {
      "bufferView": 2,
      "byteOffset": 248352,
      "componentType": 5126,
      "count": 1924,
      "max": [
        1.0,
        0.9999510645866394,
        1.0
      ],
      "min": [
        -1.0,
        -0.9999573826789856,
        -0.9999955296516418
      ],
      "type": "VEC3"
    },
    {
      "bufferView": 0,
      "byteOffset": 159216,
      "componentType": 5125,
      "count": 3648,
      "type": "SCALAR"
    },
    {
      "bufferView": 2,
      "byteOffset": 271440,
      "componentType": 5126,
      "count": 18,
      "max": [
        1.9285800457000732,
        -0.4633300006389618,
        2.0047099590301514
      ],
      "min": [
        -1.9285800457000732,
        -0.4832899868488312,
        1.876230001449585
      ],
      "type": "VEC3"
    },
    {
      "bufferView": 2,
      "byteOffset": 271656,
      "componentType": 5126,
      "count": 18,
      "max": [
        0.08664137125015259,
        0.985365629196167,
        0.16019195318222046
      ],
      "min": [
        -0.08664137125015259,
        0.9832919836044312,
        0.14679232239723206
      ],
      "type": "VEC3"
    },
    {
      "bufferView": 0,
      "byteOffset": 173808,
      "componentType": 5125,
      "count": 42,
      "type": "SCALAR"
    },
    {
      "bufferView": 2,
      "byteOffset": 271872,
      "componentType": 5126,
      "count": 672,
      "max": [
        1.4086899757385254,
        4.024779796600342,
        1.6919200420379639
      ],
      "min": [
        -1.4086899757385254,
        -4.062049865722656,
        0.694599986076355
      ],
      "type": "VEC3"
    },
    {
      "bufferView": 2,
      "byteOffset": 279936,
      "componentType": 5126,
      "count": 672,
      "max": [
        0.9510610103607178,
        1.0,
        1.0
      ],
      "min": [
        -0.9510610103607178,
        -1.0,
        -1.0
      ],
      "type": "VEC3"
    },
    {
      "bufferView": 0,
      "byteOffset": 173976,
      "componentType": 5125,
      "count": 3840,
      "type": "SCALAR"
    },
    {
      "bufferView": 2,
      "byteOffset": 288000,
      "componentType": 5126,
      "count": 84,
      "max": [
        1.3519999980926514,
        -3.9634499549865723,
        1.0690200328826904
      ],
      "min": [
        -1.3519999980926514,
        -4.019179821014404,
        1.0132900476455688
      ],
      "type": "VEC3"
    },
    {
      "bufferView": 2,
      "byteOffset": 289008,
      "componentType": 5126,
      "count": 84,
      "max": [
        0.9510610103607178,
        1.0,
        1.0
      ],
      "min": [
        -0.9510610103607178,
        -1.0,
        -1.0
      ],
      "type": "VEC3"
    },
    {
      "bufferView": 0,
      "byteOffset": 189336,
      "componentType": 5125,
      "count": 480,
      "type": "SCALAR"
    },
    {
      "bufferView": 2,
      "byteOffset": 290016,
      "componentType": 5126,
      "count": 8,
      "max": [
        0.15631000697612762,
        4.26092004776001,
        1.0887600183486938
      ],
      "min": [
        -0.15631000697612762,
        4.229790210723877,
        1.0772299766540527
      ],
      "type": "VEC3"
    },
    {
      "bufferView": 2,
      "byteOffset": 290112,
      "componentType": 5126,
      "count": 8,
      "max": [
        0.01685057021677494,
        0.3827429711818695,
        -0.923701286315918
      ],
      "min": [
        -0.01685057021677494,
        0.3827429711818695,
        -0.923701286315918
      ],
      "type": "VEC3"
    },
    {
      "bufferView": 0,
      "byteOffset": 191256,
      "componentType": 5125,
      "count": 12,
      "type": "SCALAR"
    },
    {
      "bufferView": 2,
      "byteOffset": 290208,
      "componentType": 5126,
      "count": 12,
      "max": [
        0.34588998556137085,
        4.20536994934082,
        0.9995599985122681
      ],
      "min": [
        -0.34588998556137085,
        4.178760051727295,
        0.8129100203514099
      ],
      "type": "VEC3"
    },
    {
      "bufferView": 2,
      "byteOffset": 290352,
      "componentType": 5126,
      "count": 12,
      "max": [
        0.03052075207233429,
        0.9990712404251099,
        -0.04309091344475746
      ],
      "min": [
        -0.03052075207233429,
        0.9930845499038696,
        -0.11740171909332275
      ],
      "type": "VEC3"
    },
    {
      "bufferView": 0,
      "byteOffset": 191304,
      "componentType": 5125,
      "count": 36,
      "type": "SCALAR"
    },
    {
      "bufferView": 2,
      "byteOffset": 290496,
      "componentType": 5126,
      "count": 80,
      "max": [
        1.947540044784546,
        -0.4635300040245056,
        2.021169900894165
      ],
      "min": [
        -1.947540044784546,
        -0.7350000143051147,
        1.923069953918457
      ],
      "type": "VEC3"
    },
    {
      "bufferView": 2,
      "byteOffset": 291456,
      "componentType": 5126,
      "count": 80,
      "max": [
        0.8912502527236938,
        -0.1148119568824768,
        0.9667583703994751
      ],
      "min": [
        -0.8912502527236938,
        -0.7471463084220886,
        0.30641698837280273
      ],
      "type": "VEC3"
    },
    {
      "bufferView": 0,
      "byteOffset": 191448,
      "componentType": 5125,
      "count": 336,
      "type": "SCALAR"
    },
    {
      "bufferView": 2,
      "byteOffset": 292416,
      "componentType": 5126,
      "count": 55764,
      "max": [
        1.862720012664795,
        3.3067800998687744,
        1.3466600179672241
      ],
      "min": [
        -1.862720012664795,
        -3.4835400581359863,
        -0.0016400000313296914
      ],
      "type": "VEC3"
    },
    {
      "bufferView": 2,
      "byteOffset": 961584,
      "componentType": 5126,
      "count": 55764,
      "max": [
        1.0,
        1.0,
        1.0
      ],
      "min": [
        -1.0,
        -1.0,
        -1.0
      ],
      "type": "VEC3"
    },
    {
      "bufferView": 0,
      "byteOffset": 192792,
      "componentType": 5125,
      "count": 92160,
      "type": "SCALAR"
    },
    {
      "bufferView": 2,
      "byteOffset": 1630752,
      "componentType": 5126,
      "count": 3040,
      "max": [
        1.8294700384140015,
        3.121809959411621,
        1.1616899967193604
      ],
      "min": [
        -1.8294700384140015,
        -3.298569917678833,
        0.1833299994468689
      ],
      "type": "VEC3"
    },
    {
      "bufferView": 2,
      "byteOffset": 1667232,
      "componentType": 5126,
      "count": 3040,
      "max": [
        0.996829628944397,
        0.9928737282752991,
        0.9928737282752991
      ],
      "min": [
        -0.9968307018280029,
        -0.9928773045539856,
        -0.9928737282752991
      ],
      "type": "VEC3"
    },
    {
      "bufferView": 0,
      "byteOffset": 561432,
      "componentType": 5125,
      "count": 13440,
      "type": "SCALAR"
    },
    {
      "bufferView": 2,
      "byteOffset": 1703712,
      "componentType": 5126,
      "count": 20800,
      "max": [
        1.8467700481414795,
        3.199310064315796,
        1.2386800050735474
      ],
      "min": [
        -1.8467700481414795,
        -3.373039960861206,
        0.12553000450134277
      ],
      "type": "VEC3"
    },
    {
      "bufferView": 2,
      "byteOffset": 1953312,
      "componentType": 5126,
      "count": 20800,
      "max": [
        1.0,
        1.0,
        1.0
      ],
      "min": [
        -1.0,
        -1.0,
        -1.0
      ],
      "type": "VEC3"
    },
    {
      "bufferView": 0,
      "byteOffset": 615192,
      "componentType": 5125,
      "count": 117120,
      "type": "SCALAR"
    },
    {
      "bufferView": 2,
      "byteOffset": 2202912,
      "componentType": 5126,
      "count": 1120,
      "max": [
        1.6637099981307983,
        3.119230031967163,
        1.15910005569458
      ],
      "min": [
        -1.6637099981307983,
        -3.2959799766540527,
        0.18592000007629395
      ],
      "type": "VEC3"
    },
    {
      "bufferView": 2,
      "byteOffset": 2216352,
      "componentType": 5126,
      "count": 1120,
      "max": [
        0.9372450113296509,
        0.9927033185958862,
        0.9927033185958862
      ],
      "min": [
        -0.9372450113296509,
        -0.9927033185958862,
        -0.9927033185958862
      ],
      "type": "VEC3"
    },
    {
      "bufferView": 0,
      "byteOffset": 1083672,
      "componentType": 5125,
      "count": 5760,
      "type": "SCALAR"
    },
    {
      "bufferView": 2,
      "byteOffset": 2229792,
      "componentType": 5126,
      "count": 1920,
      "max": [
        1.5287699699401855,
        2.954669952392578,
        0.9945399761199951
      ],
      "min": [
        -1.5287699699401855,
        -3.1314098834991455,
        0.35047999024391174
      ],
      "type": "VEC3"
    },
    {
      "bufferView": 2,
      "byteOffset": 2252832,
      "componentType": 5126,
      "count": 1920,
      "max": [
        0.9918851256370544,
        0.9914968609809875,
        0.991489052772522
      ],
      "min": [
        -0.991884171962738,
        -0.9914968609809875,
        -0.9914846420288086
      ],
      "type": "VEC3"
    },
    {
      "bufferView": 0,
      "byteOffset": 1106712,
      "componentType": 5125,
      "count": 9600,
      "type": "SCALAR"
    },
    {
      "bufferView": 2,
      "byteOffset": 2275872,
      "componentType": 5126,
      "count": 80,
      "max": [
        1.4829800128936768,
        -4.0131001472473145,
        1.117900013923645
      ],
      "min": [
        -1.4829800128936768,
        -4.183879852294922,
        0.6125100255012512
      ],
      "type": "VEC3"
    },
    {
      "bufferView": 2,
      "byteOffset": 2276832,
      "componentType": 5126,
      "count": 80,
      "max": [
        0.4007200300693512,
        -0.8910941481590271,
        0.29231220483779907
      ],
      "min": [
        -0.4007200300693512,
        -0.9558689594268799,
        -0.00787020567804575
      ],
      "type": "VEC3"
    },
    {
      "bufferView": 0,
      "byteOffset": 1145112,
      "componentType": 5125,
      "count": 264,
      "type": "SCALAR"
    },
    {
      "bufferView": 2,
      "byteOffset": 2277792,
      "componentType": 5126,
      "count": 90,
      "max": [
        1.5255500078201294,
        4.161300182342529,
        1.7664300203323364
      ],
      "min": [
        -1.5255500078201294,
        3.8622899055480957,
        1.3697199821472168
      ],
      "type": "VEC3"
    },
    {
      "bufferView": 2,
      "byteOffset": 2278872,
      "componentType": 5126,
      "count": 90,
      "max": [
        0.4000193774700165,
        0.9343928098678589,
        0.4546700119972229
      ],
      "min": [
        -0.4000193774700165,
        0.8137679696083069,
        0.1863263100385666
      ],
      "type": "VEC3"
    },
    {
      "bufferView": 0,
      "byteOffset": 1146168,
      "componentType": 5125,
      "count": 312,
      "type": "SCALAR"
    },
    {
      "bufferView": 2,
      "byteOffset": 2279952,
      "componentType": 5126,
      "count": 79,
      "max": [
        0.9906499981880188,
        -4.184080123901367,
        1.1128699779510498
      ],
      "min": [
        -0.9906499981880188,
        -4.367760181427002,
        0.5470200181007385
      ],
      "type": "VEC3"
    },
    {
      "bufferView": 2,
      "byteOffset": 2280900,
      "componentType": 5126,
      "count": 79,
      "max": [
        0.2967034578323364,
        -0.9104811549186707,
        0.3320118486881256
      ],
      "min": [
        -0.2967034578323364,
        -0.9999935030937195,
        -0.013400002382695675
      ],
      "type": "VEC3"
    },
    {
      "bufferView": 1,
      "componentType": 5126,
      "count": 79,
      "max": [
        2.0388898849487305,
        0.9924200177192688
      ],
      "min": [
        0.5,
        0.09747999906539917
      ],
      "type": "VEC2"
    },
    {
      "bufferView": 0,
      "byteOffset": 1147416,
      "componentType": 5125,
      "count": 336,
      "type": "SCALAR"
    },
    {
      "bufferView": 2,
      "byteOffset": 2281848,
      "componentType": 5126,
      "count": 66,
      "max": [
        1.4690899848937988,
        -4.033989906311035,
        0.5479099750518799
      ],
      "min": [
        -1.4690899848937988,
        -4.275829792022705,
        0.35774001479148865
      ],
      "type": "VEC3"
    },
    {
      "bufferView": 2,
      "byteOffset": 2282640,
      "componentType": 5126,
      "count": 66,
      "max": [
        0.4596143662929535,
        -0.8540821671485901,
        0.3929322361946106
      ],
      "min": [
        -0.4596143662929535,
        -0.9468386769294739,
        0.04001088812947273
      ],
      "type": "VEC3"
    },
    {
      "bufferView": 1,
      "byteOffset": 632,
      "componentType": 5126,
      "count": 66,
      "max": [
        0.11867000162601471,
        0.6327800154685974
      ],
      "min": [
        -0.9389100074768066,
        0.17389999330043793
      ],
      "type": "VEC2"
    },
    {
      "bufferView": 0,
      "byteOffset": 1148760,
      "componentType": 5125,
      "count": 216,
      "type": "SCALAR"
    },
    {
      "bufferView": 2,
      "byteOffset": 2283432,
      "componentType": 5126,
      "count": 76,
      "max": [
        1.5328199863433838,
        4.028580188751221,
        1.3690999746322632
      ],
      "min": [
        -1.5328199863433838,
        3.8852899074554443,
        0.536899983882904
      ],
      "type": "VEC3"
    },
    {
      "bufferView": 2,
      "byteOffset": 2284344,
      "componentType": 5126,
      "count": 76,
      "max": [
        0.4026021361351013,
        0.915461003780365,
        0.16834554076194763
      ],
      "min": [
        -0.4026021361351013,
        0.8577231764793396,
        -0.3827330768108368
      ],
      "type": "VEC3"
    },
    {
      "bufferView": 1,
      "byteOffset": 1160,
      "componentType": 5126,
      "count": 76,
      "max": [
        0.3160800039768219,
        0.9998900294303894
      ],
      "min": [
        0.00011000000085914508,
        0.00011000000085914508
      ],
      "type": "VEC2"
    },
    {
      "bufferView": 0,
      "byteOffset": 1149624,
      "componentType": 5125,
      "count": 216,
      "type": "SCALAR"
    },
    {
      "bufferView": 2,
      "byteOffset": 2285256,
      "componentType": 5126,
      "count": 576,
      "max": [
        1.0580600500106812,
        -0.13827000558376312,
        2.1448800563812256
      ],
      "min": [
        0.3891800045967102,
        -0.5041099786758423,
        1.5544699430465698
      ],
      "type": "VEC3"
    },
    {
      "bufferView": 2,
      "byteOffset": 2292168,
      "componentType": 5126,
      "count": 576,
      "max": [
        1.0,
        0.999984085559845,
        0.9999846816062927
      ],
      "min": [
        -1.0,
        -0.999984085559845,
        -0.9999846816062927
      ],
      "type": "VEC3"
    },
    {
      "bufferView": 0,
      "byteOffset": 1150488,
      "componentType": 5125,
      "count": 3456,
      "type": "SCALAR"
    }
  ],
  "asset": {
    "extras": {
      "author": "teddyp (https://sketchfab.com/teddyp)",
      "license": "CC-BY-4.0 (http://creativecommons.org/licenses/by/4.0/)",
      "source": "https://sketchfab.com/3d-models/tpc-gt1-aed05c299cf74d4cb0626dc40974b5e2",
      "title": "TPC GT1"
    },
    "generator": "Sketchfab-12.67.0",
    "version": "2.0"
  },
  "bufferViews": [
    {
      "buffer": 0,
      "byteLength": 1164312,
      "name": "floatBufferViews",
      "target": 34963
    },
    {
      "buffer": 0,
      "byteLength": 1768,
      "byteOffset": 1164312,
      "byteStride": 8,
      "name": "floatBufferViews",
      "target": 34962
    },
    {
      "buffer": 0,
      "byteLength": 2299080,
      "byteOffset": 1166080,
      "byteStride": 12,
      "name": "floatBufferViews",
      "target": 34962
    }
  ],
  "buffers": [
    {
      "byteLength": 3465160,
      "uri": "scene.bin"
    }
  ],
  "images": [
    {
      "uri": "textures/grill_02_baseColor.jpeg"
    },
    {
      "uri": "textures/grill_01_baseColor.jpeg"
    }
  ],
  "materials": [
    {
      "doubleSided": true,
      "name": "black_03",
      "pbrMetallicRoughness": {
        "baseColorFactor": [
          0.0,
          0.0,
          0.0,
          1.0
        ],
        "metallicFactor": 0.0
      }
    },
    {
      "doubleSided": true,
      "name": "grill_02",
      "pbrMetallicRoughness": {
        "baseColorFactor": [
          0.32,
          0.32,
          0.32,
          1.0
        ],
        "baseColorTexture": {
          "index": 0
        },
        "roughnessFactor": 0.15
      }
    },
    {
      "doubleSided": true,
      "name": "grill_01",
      "pbrMetallicRoughness": {
        "baseColorTexture": {
          "index": 1
        },
        "metallicFactor": 0.78,
        "roughnessFactor": 0.1
      }
    },
    {
      "alphaMode": "BLEND",
      "doubleSided": true,
      "name": "front_light_cover",
      "pbrMetallicRoughness": {
        "baseColorFactor": [
          1.0,
          0.9122110626201684,
          0.6128662499164927,
          0.94
        ],
        "roughnessFactor": 0.06
      }
    },
    {
      "alphaMode": "BLEND",
      "doubleSided": true,
      "name": "back_light_cover",
      "pbrMetallicRoughness": {
        "baseColorFactor": [
          1.0,
          0.0,
          0.0,
          0.96
        ],
        "roughnessFactor": 0.03
      }
    },
    {
      "name": "rubber",
      "pbrMetallicRoughness": {
        "baseColorFactor": [
          0.04,
          0.04,
          0.04,
          1.0
        ],
        "roughnessFactor": 0.27
      }
    },
    {
      "doubleSided": true,
      "name": "chrome",
      "pbrMetallicRoughness": {
        "baseColorFactor": [
          0.43,
          0.43,
          0.43,
          1.0
        ],
        "metallicFactor": 0.14,
        "roughnessFactor": 0.28
      }
    },
    {
      "doubleSided": true,
      "name": "wheel",
      "pbrMetallicRoughness": {
        "baseColorFactor": [
          0.41000000000000003,
          0.41000000000000003,
          0.41000000000000003,
          1.0
        ],
        "roughnessFactor": 0.11
      }
    },
    {
      "name": "car_paint",
      "pbrMetallicRoughness": {
        "baseColorFactor": [
          0.014348001768642886,
          0.512241594656483,
          0.0,
          1.0
        ],
        "metallicFactor": 0.0,
        "roughnessFactor": 0.08
      }
    },
    {
      "doubleSided": true,
      "name": "disk",
      "pbrMetallicRoughness": {
        "baseColorFactor": [
          0.11,
          0.0,
          0.0,
          1.0
        ],
        "roughnessFactor": 0.43
      }
    },
    {
      "name": "black_02",
      "pbrMetallicRoughness": {
        "baseColorFactor": [
          0.0,
          0.0,
          0.0,
          1.0
        ],
        "metallicFactor": 0.84,
        "roughnessFactor": 0.25
      }
    },
    {
      "alphaMode": "BLEND",
      "doubleSided": true,
      "name": "window",
      "pbrMetallicRoughness": {
        "baseColorFactor": [
          0.0,
          0.0,
          0.0,
          0.96
        ],
        "roughnessFactor": 0.0
      }
    },
    {
      "doubleSided": true,
      "name": "side_mirrors",
      "pbrMetallicRoughness": {
        "roughnessFactor": 0.0
      }
    },
    {
      "doubleSided": true,
      "name": "lights",
      "pbrMetallicRoughness": {
        "roughnessFactor": 0.6
      }
    },
    {
      "doubleSided": true,
      "emissiveFactor": [
        0.8000000715255737,
        0.02681609243154525,
        0.0
      ],
      "name": "orange_lights",
      "pbrMetallicRoughness": {
        "baseColorFactor": [
          1.0,
          0.30026978286695144,
          0.0,
          1.0
        ],
        "roughnessFactor": 0.6
      }
    },
    {
      "doubleSided": true,
      "emissiveFactor": [
        0.16000001430511476,
        0.12882492542266846,
        0.0331062912940979
      ],
      "name": "low_light",
      "pbrMetallicRoughness": {
        "roughnessFactor": 0.6
      }
    },
    {
      "doubleSided": true,
      "name": "wite",
      "pbrMetallicRoughness": {
        "metallicFactor": 0.0
      }
    },
    {
      "name": "black_01",
      "pbrMetallicRoughness": {
        "baseColorFactor": [
          0.0,
          0.0,
          0.0,
          1.0
        ],
        "metallicFactor": 0.0,
        "roughnessFactor": 0.6
      }
    }
  ],
  "meshes": [
    {
      "name": "Cube_0",
      "primitives": [
        {
          "attributes": {
            "NORMAL": 1,
            "POSITION": 0
          },
          "indices": 2,
          "material": 8,
          "mode": 4
        }
      ]
    },
    {
      "name": "Cube_1",
      "primitives": [
        {
          "attributes": {
            "NORMAL": 4,
            "POSITION": 3
          },
          "indices": 5,
          "material": 17,
          "mode": 4
        }
      ]
    },
    {
      "name": "Cube_2",
      "primitives": [
        {
          "attributes": {
            "NORMAL": 7,
            "POSITION": 6
          },
          "indices": 8,
          "material": 0,
          "mode": 4
        }
      ]
    },
    {
      "name": "Cube_3",
      "primitives": [
        {
          "attributes": {
            "NORMAL": 10,
            "POSITION": 9
          },
          "indices": 11,
          "material": 6,
          "mode": 4
        }
      ]
    },
    {
      "name": "Cube.007_0",
      "primitives": [
        {
          "attributes": {
            "NORMAL": 13,
            "POSITION": 12
          },
          "indices": 14,
          "material": 10,
          "mode": 4
        }
      ]
    },
    {
      "name": "Cube.007_1",
      "primitives": [
        {
          "attributes": {
            "NORMAL": 16,
            "POSITION": 15
          },
          "indices": 17,
          "material": 6,
          "mode": 4
        }
      ]
    },
    {
      "name": "Cube.007_2",
      "primitives": [
        {
          "attributes": {
            "NORMAL": 19,
            "POSITION": 18
          },
          "indices": 20,
          "material": 11,
          "mode": 4
        }
      ]
    },
    {
      "name": "Cube.007_3",
      "primitives": [
        {
          "attributes": {
            "NORMAL": 22,
            "POSITION": 21
          },
          "indices": 23,
          "material": 0,
          "mode": 4
        }
      ]
    },
    {
      "name": "Cube.007_4",
      "primitives": [
        {
          "attributes": {
            "NORMAL": 25,
            "POSITION": 24
          },
          "indices": 26,
          "material": 12,
          "mode": 4
        }
      ]
    },
    {
      "name": "Cube.007_5",
      "primitives": [
        {
          "attributes": {
            "NORMAL": 28,
            "POSITION": 27
          },
          "indices": 29,
          "material": 13,
          "mode": 4
        }
      ]
    },
    {
      "name": "Cube.007_6",
      "primitives": [
        {
          "attributes": {
            "NORMAL": 31,
            "POSITION": 30
          },
          "indices": 32,
          "material": 14,
          "mode": 4
        }
      ]
    },
    {
      "name": "Cube.007_7",
      "primitives": [
        {
          "attributes": {
            "NORMAL": 34,
            "POSITION": 33
          },
          "indices": 35,
          "material": 15,
          "mode": 4
        }
      ]
    },
    {
      "name": "Cube.007_8",
      "primitives": [
        {
          "attributes": {
            "NORMAL": 37,
            "POSITION": 36
          },
          "indices": 38,
          "material": 16,
          "mode": 4
        }
      ]
    },
    {
      "name": "Cube.007_9",
      "primitives": [
        {
          "attributes": {
            "NORMAL": 40,
            "POSITION": 39
          },
          "indices": 41,
          "material": 8,
          "mode": 4
        }
      ]
    },
    {
      "name": "Cylinder_0",
      "primitives": [
        {
          "attributes": {
            "NORMAL": 43,
            "POSITION": 42
          },
          "indices": 44,
          "material": 5,
          "mode": 4
        }
      ]
    },
    {
      "name": "Cylinder_1",
      "primitives": [
        {
          "attributes": {
            "NORMAL": 46,
            "POSITION": 45
          },
          "indices": 47,
          "material": 6,
          "mode": 4
        }
      ]
    },
    {
      "name": "Cylinder_2",
      "primitives": [
        {
          "attributes": {
            "NORMAL": 49,
            "POSITION": 48
          },
          "indices": 50,
          "material": 7,
          "mode": 4
        }
      ]
    },
    {
      "name": "Cylinder_3",
      "primitives": [
        {
          "attributes": {
            "NORMAL": 52,
            "POSITION": 51
          },
          "indices": 53,
          "material": 8,
          "mode": 4
        }
      ]
    },
    {
      "name": "Cylinder_4",
      "primitives": [
        {
          "attributes": {
            "NORMAL": 55,
            "POSITION": 54
          },
          "indices": 56,
          "material": 9,
          "mode": 4
        }
      ]
    },
    {
      "name": "Cube.001_0",
      "primitives": [
        {
          "attributes": {
            "NORMAL": 58,
            "POSITION": 57
          },
          "indices": 59,
          "material": 3,
          "mode": 4
        }
      ]
    },
    {
      "name": "Cube.001_1",
      "primitives": [
        {
          "attributes": {
            "NORMAL": 61,
            "POSITION": 60
          },
          "indices": 62,
          "material": 4,
          "mode": 4
        }
      ]
    },
    {
      "name": "Cube.002_0",
      "primitives": [
        {
          "attributes": {
            "NORMAL": 64,
            "POSITION": 63,
            "TEXCOORD_0": 65
          },
          "indices": 66,
          "material": 2,
          "mode": 4
        }
      ]
    },
    {
      "name": "Cube.002_1",
      "primitives": [
        {
          "attributes": {
            "NORMAL": 68,
            "POSITION": 67,
            "TEXCOORD_0": 69
          },
          "indices": 70,
          "material": 1,
          "mode": 4
        }
      ]
    },
    {
      "name": "Cube.003_0",
      "primitives": [
        {
          "attributes": {
            "NORMAL": 72,
            "POSITION": 71,
            "TEXCOORD_0": 73
          },
          "indices": 74,
          "material": 1,
          "mode": 4
        }
      ]
    },
    {
      "name": "Torus_0",
      "primitives": [
        {
          "attributes": {
            "NORMAL": 76,
            "POSITION": 75
          },
          "indices": 77,
          "material": 0,
          "mode": 4
        }
      ]
    }
  ],
  "nodes": [
    {
      "children": [
        1
      ],
      "matrix": [
        0.549233078956604,
        1.9611737557197886e-32,
        -8.832341395468436e-17,
        0.0,
        -8.832341395468436e-17,
        1.2195424202867766e-16,
        -0.549233078956604,
        0.0,
        0.0,
        0.549233078956604,
        1.2195424202867766e-16,
        0.0,
        -1.0559112720472108e-17,
        0.0,
        0.0,
        1.0
      ],
      "name": "Sketchfab_model"
    },
    {
      "children": [
        2,
        7,
        18,
        24,
        27,
        30,
        32
      ],
      "name": "Root"
    },
    {
      "children": [
        3,
        4,
        5,
        6
      ],
      "name": "Cube"
    },
    {
      "mesh": 0,
      "name": "Cube_0"
    },
    {
      "mesh": 1,
      "name": "Cube_1"
    },
    {
      "mesh": 2,
      "name": "Cube_2"
    },
    {
      "mesh": 3,
      "name": "Cube_3"
    },
    {
      "children": [
        8,
        9,
        10,
        11,
        12,
        13,
        14,
        15,
        16,
        17
      ],
      "name": "Cube.007"
    },
    {
      "mesh": 4,
      "name": "Cube.007_0"
    },
    {
      "mesh": 5,
      "name": "Cube.007_1"
    },
    {
      "mesh": 6,
      "name": "Cube.007_2"
    },
    {
      "mesh": 7,
      "name": "Cube.007_3"
    },
    {
      "mesh": 8,
      "name": "Cube.007_4"
    },
    {
      "mesh": 9,
      "name": "Cube.007_5"
    },
    {
      "mesh": 10,
      "name": "Cube.007_6"
    },
    {
      "mesh": 11,
      "name": "Cube.007_7"
    },
    {
      "mesh": 12,
      "name": "Cube.007_8"
    },
    {
      "mesh": 13,
      "name": "Cube.007_9"
    },
    {
      "children": [
        19,
        20,
        21,
        22,
        23
      ],
      "name": "Cylinder"
    },
    {
      "mesh": 14,
      "name": "Cylinder_0"
    },
    {
      "mesh": 15,
      "name": "Cylinder_1"
    },
    {
      "mesh": 16,
      "name": "Cylinder_2"
    },
    {
      "mesh": 17,
      "name": "Cylinder_3"
    },
    {
      "mesh": 18,
      "name": "Cylinder_4"
    },
    {
      "children": [
        25,
        26
      ],
      "name": "Cube.001"
    },
    {
      "mesh": 19,
      "name": "Cube.001_0"
    },
    {
      "mesh": 20,
      "name": "Cube.001_1"
    },
    {
      "children": [
        28,
        29
      ],
      "name": "Cube.002"
    },
    {
      "mesh": 21,
      "name": "Cube.002_0"
    },
    {
      "mesh": 22,
      "name": "Cube.002_1"
    },
    {
      "children": [
        31
      ],
      "name": "Cube.003"
    },
    {
      "mesh": 23,
      "name": "Cube.003_0"
    },
    {
      "children": [
        33
      ],
      "name": "Torus"
    },
    {
      "mesh": 24,
      "name": "Torus_0"
    }
  ],
  "samplers": [
    {
      "magFilter": 9729,
      "minFilter": 9987,
      "wrapS": 10497,
      "wrapT": 10497
    }
  ],
  "scene": 0,
  "scenes": [
    {
      "name": "Sketchfab_Scene",
      "nodes": [
        0
      ]
    }
  ],
  "textures": [
    {
      "sampler": 0,
      "source": 0
    },
    {
      "sampler": 0,
      "source": 1
    }
  ]
}
