<svg width="1303" height="410" viewBox="0 0 1303 410" fill="none" xmlns="http://www.w3.org/2000/svg">
<path d="M76.3077 47.5385C80.9658 58.7179 91.889 66 104 66H238C250.111 66 261.034 58.7179 265.692 47.5385L277.808 18.4615C282.466 7.28213 293.389 0 305.5 0H1273C1289.57 0 1303 13.4315 1303 30V250C1303 266.569 1289.57 280 1273 280H836.842C827.32 280 818.364 284.521 812.708 292.181L734.713 397.819C729.057 405.479 720.101 410 710.578 410H30C13.4315 410 0 396.569 0 380V30C0 13.4315 13.4315 0 30 0H36.5C48.611 0 59.5342 7.28213 64.1923 18.4615L76.3077 47.5385Z" fill="black"/>
</svg>
