<svg width="471" height="702" viewBox="0 0 471 702" fill="none" xmlns="http://www.w3.org/2000/svg">
<rect x="35" y="14" width="401" height="674" rx="30" fill="#D9D9D9"/>
<path d="M451 414.44H466V428H451V414.44Z" fill="black"/>
<path d="M451 364.72H466V378.28H451V364.72Z" fill="black"/>
<path d="M451 315H466V329.69H451V315Z" fill="black"/>
<path d="M0 218.44H13V232H0V218.44Z" fill="black"/>
<path d="M0 168.72H13V182.28H0V168.72Z" fill="black"/>
<path d="M0 119H13V133.69H0V119Z" fill="black"/>
<mask id="path-4-inside-1_1023_74" fill="white">
<path d="M470.891 156.501C470.891 166.01 466.382 174.957 458.738 180.615L419.364 209.755C411.719 215.413 407.21 224.36 407.21 233.87V437.928C407.21 447.438 411.72 456.385 419.364 462.042L458.737 491.181C466.382 496.839 470.891 505.786 470.891 515.296V606.698C470.891 623.267 457.46 636.698 440.891 636.698H233.771C224.905 636.698 216.494 640.62 210.794 647.41L173.959 691.289C168.259 698.079 159.847 702 150.982 702H30.1089C13.5403 702 0.108887 688.569 0.108887 672V426.393C0.108887 416.883 4.61797 407.936 12.2622 402.279L49.1997 374.942C56.8439 369.284 61.353 360.338 61.353 350.828V146.77C61.353 137.26 56.844 128.313 49.2 122.656L12.262 95.3178C4.61787 89.6604 0.108887 80.7137 0.108887 71.2038V30C0.108887 13.4315 13.5403 0 30.1089 0H440.891C457.46 0 470.891 13.4315 470.891 30V156.501Z"/>
</mask>
<path d="M470.891 156.501C470.891 166.01 466.382 174.957 458.738 180.615L419.364 209.755C411.719 215.413 407.21 224.36 407.21 233.87V437.928C407.21 447.438 411.72 456.385 419.364 462.042L458.737 491.181C466.382 496.839 470.891 505.786 470.891 515.296V606.698C470.891 623.267 457.46 636.698 440.891 636.698H233.771C224.905 636.698 216.494 640.62 210.794 647.41L173.959 691.289C168.259 698.079 159.847 702 150.982 702H30.1089C13.5403 702 0.108887 688.569 0.108887 672V426.393C0.108887 416.883 4.61797 407.936 12.2622 402.279L49.1997 374.942C56.8439 369.284 61.353 360.338 61.353 350.828V146.77C61.353 137.26 56.844 128.313 49.2 122.656L12.262 95.3178C4.61787 89.6604 0.108887 80.7137 0.108887 71.2038V30C0.108887 13.4315 13.5403 0 30.1089 0H440.891C457.46 0 470.891 13.4315 470.891 30V156.501Z" fill="#D2FF60"/>
<path d="M49.2 122.656L49.7949 121.852L49.2 122.656ZM49.1997 374.942L48.6048 374.138L49.1997 374.942ZM173.959 691.289L174.725 691.931L173.959 691.289ZM210.794 647.41L210.028 646.767L210.794 647.41ZM419.364 462.042L418.769 462.846L419.364 462.042ZM419.364 209.755L418.769 208.952L419.364 209.755ZM458.738 180.615L459.333 181.418L458.738 180.615ZM458.738 180.615L458.143 179.811L418.769 208.952L419.364 209.755L419.959 210.559L459.333 181.418L458.738 180.615ZM407.21 233.87H406.21V437.928H407.21H408.21V233.87H407.21ZM419.364 462.042L418.769 462.846L458.143 491.985L458.737 491.181L459.332 490.377L419.959 461.239L419.364 462.042ZM470.891 515.296H469.891V606.698H470.891H471.891V515.296H470.891ZM440.891 636.698V635.698H233.771V636.698V637.698H440.891V636.698ZM210.794 647.41L210.028 646.767L173.193 690.646L173.959 691.289L174.725 691.931L211.56 648.053L210.794 647.41ZM150.982 702V701H30.1089V702V703H150.982V702ZM0.108887 672H1.10889V426.393H0.108887H-0.891113V672H0.108887ZM12.2622 402.279L12.8571 403.083L49.7946 375.746L49.1997 374.942L48.6048 374.138L11.6673 401.475L12.2622 402.279ZM61.353 350.828H62.353V146.77H61.353H60.353V350.828H61.353ZM49.2 122.656L49.7949 121.852L12.8569 94.514L12.262 95.3178L11.6671 96.1216L48.6051 123.46L49.2 122.656ZM0.108887 71.2038H1.10889V30H0.108887H-0.891113V71.2038H0.108887ZM30.1089 0V1H440.891V0V-1H30.1089V0ZM470.891 30H469.891V156.501H470.891H471.891V30H470.891ZM440.891 0V1C456.907 1 469.891 13.9837 469.891 30H470.891H471.891C471.891 12.8792 458.012 -1 440.891 -1V0ZM0.108887 30H1.10889C1.10889 13.9837 14.0926 1 30.1089 1V0V-1C12.9881 -1 -0.891113 12.8792 -0.891113 30H0.108887ZM12.262 95.3178L12.8569 94.514C5.46757 89.0452 1.10889 80.3967 1.10889 71.2038H0.108887H-0.891113C-0.891113 81.0307 3.76817 90.2756 11.6671 96.1216L12.262 95.3178ZM61.353 146.77H62.353C62.353 136.943 57.6937 127.698 49.7949 121.852L49.2 122.656L48.6051 123.46C55.9943 128.928 60.353 137.577 60.353 146.77H61.353ZM49.1997 374.942L49.7946 375.746C57.6936 369.9 62.353 360.655 62.353 350.828H61.353H60.353C60.353 360.021 55.9943 368.669 48.6048 374.138L49.1997 374.942ZM0.108887 426.393H1.10889C1.10889 417.2 5.46767 408.552 12.8571 403.083L12.2622 402.279L11.6673 401.475C3.76827 407.321 -0.891113 416.566 -0.891113 426.393H0.108887ZM30.1089 702V701C14.0926 701 1.10889 688.016 1.10889 672H0.108887H-0.891113C-0.891113 689.121 12.9881 703 30.1089 703V702ZM173.959 691.289L173.193 690.646C167.683 697.209 159.552 701 150.982 701V702V703C160.143 703 168.835 698.948 174.725 691.931L173.959 691.289ZM233.771 636.698V635.698C224.61 635.698 215.918 639.75 210.028 646.767L210.794 647.41L211.56 648.053C217.07 641.489 225.201 637.698 233.771 637.698V636.698ZM470.891 606.698H469.891C469.891 622.714 456.907 635.698 440.891 635.698V636.698V637.698C458.012 637.698 471.891 623.819 471.891 606.698H470.891ZM458.737 491.181L458.143 491.985C465.532 497.454 469.891 506.103 469.891 515.296H470.891H471.891C471.891 505.469 467.232 496.223 459.332 490.377L458.737 491.181ZM407.21 437.928H406.21C406.21 447.755 410.87 457 418.769 462.846L419.364 462.042L419.959 461.239C412.569 455.77 408.21 447.121 408.21 437.928H407.21ZM419.364 209.755L418.769 208.952C410.87 214.798 406.21 224.043 406.21 233.87H407.21H408.21C408.21 224.677 412.569 216.028 419.959 210.559L419.364 209.755ZM458.738 180.615L459.333 181.418C467.232 175.572 471.891 166.327 471.891 156.501H470.891H469.891C469.891 165.693 465.532 174.342 458.143 179.811L458.738 180.615Z" fill="black" mask="url(#path-4-inside-1_1023_74)"/>
</svg>
